<svg height="512pt" viewBox="0 -48 512.00068 512" width="512pt" xmlns="http://www.w3.org/2000/svg"><path d="m281.15625 113.558594c-2.972656 0-5.96875-.878906-8.589844-2.710938l-49.144531-34.414062c-6.785156-4.753906-8.4375-14.105469-3.683594-20.890625 4.75-6.785157 14.101563-8.433594 20.886719-3.683594l49.148438 34.414063c6.785156 4.75 8.433593 14.101562 3.683593 20.890624-2.917969 4.164063-7.570312 6.394532-12.300781 6.394532zm0 0" fill="#54469d"/><path d="m45.246094 317.121094c-7.109375 0-14.109375-1.5625-20.347656-4.679688-10.75-5.375-18.765626-14.617187-22.566407-26.019531s-2.933593-23.605469 2.445313-34.355469c.226562-.460937.480468-.90625.757812-1.339844l81.898438-128.820312c4.839844-7.609375 11.769531-13.53125 20.042968-17.125l57.070313-24.800781c.410156-.175781.824219-.332031 1.242187-.472657 18.410157-6.125 38.585938.164063 50.210938 15.644532 4.972656 6.625 3.636719 16.027344-2.984375 21-6.625 4.976562-16.027344 3.636718-21.003906-2.984375-3.757813-5.007813-10.21875-7.121094-16.222657-5.359375l-56.359374 24.488281c-2.757813 1.195313-5.066407 3.171875-6.683594 5.707031l-81.414063 128.058594c-1.546875 3.4375-1.738281 7.277344-.542969 10.871094 1.269532 3.800781 3.941407 6.882812 7.527344 8.675781 4.164063 2.082031 9.796875 2.03125 14.695313-.132813 4.09375-1.804687 6.992187-4.785156 7.949219-8.175781 2.253906-7.972656 10.546874-12.605469 18.515624-10.351562 7.972657 2.253906 12.605469 10.542969 10.351563 18.511719-3.398437 12.023437-12.402344 22.03125-24.699219 27.460937-6.34375 2.800781-13.160156 4.199219-19.882812 4.199219zm0 0" fill="#ffcebf"/><path d="m437.003906 197.195312h-46.996094c-2.285156 0-4.539062-.523437-6.59375-1.527343l-117.980468-57.722657c-7.4375-3.640624-10.519532-12.625-6.878906-20.066406 3.640624-7.441406 12.625-10.519531 20.0625-6.878906l114.863281 56.195312h43.523437c8.285156 0 15 6.71875 15 15 0 8.285157-6.714844 15-15 15zm0 0" fill="#ffcebf"/><path d="m32.914062 415.804688c-3.019531 0-6.03125-.910157-8.601562-2.714844-4.65625-3.257813-7.066406-8.863282-6.234375-14.484375l9.839844-66.351563c.34375-2.304687 1.214843-4.496094 2.550781-6.40625l32.824219-46.875c4.75-6.785156 10.945312-4.53125 17.730469.21875 6.785156 4.75 11.59375 10.203125 6.839843 16.988282l-30.789062 43.976562-4.921875 33.175781 29.492187-15.96875 23.695313-33.839843c4.75-6.789063 7.894531-4.085938 14.683594.667968 6.785156 4.75 7.75 7.210938 3 13.996094l-18.835938 39.28125c-1.335938 1.90625-3.097656 3.480469-5.144531 4.585938l-58.988281 31.941406c-2.234376 1.210937-4.691407 1.808594-7.140626 1.808594zm0 0" fill="#f27281"/><path d="m105.722656 259.507812c-2.972656 0-5.972656-.878906-8.59375-2.710937-6.785156-4.753906-8.433594-14.105469-3.683594-20.890625l160.703126-229.507812c2.28125-3.261719 5.765624-5.480469 9.683593-6.171876 3.914063-.6875 7.949219.203126 11.207031 2.488282l49.148438 34.410156c3.257812 2.285156 5.476562 5.765625 6.167969 9.683594.6875 3.917968-.203125 7.949218-2.484375 11.207031l-134.988282 192.78125c-4.75 6.785156-14.101562 8.433594-20.886718 3.683594-6.789063-4.75-8.4375-14.105469-3.6875-20.890625l126.386718-180.492188-24.574218-17.207031-152.101563 217.222656c-2.917969 4.164063-7.570312 6.394531-12.296875 6.394531zm0 0" fill="#f27281"/><path d="m450.546875 325.742188c-3.558594-7.480469-12.503906-10.65625-19.988281-7.097657l-20.75 9.875c-.085938.039063-.175782.082031-.261719.125-24.257813 12.132813-51.761719 18.542969-79.535156 18.542969-27.121094 0-54.277344-6.410156-78.539063-18.542969l-19.75-9.871093c-.214844-.109376-.433594-.207032-.652344-.300782-.136718-.0625-.277343-.121094-.417968-.179687-.3125-.128907-.632813-.242188-.953125-.347657-.144531-.046874-.292969-.09375-.4375-.136718-.386719-.113282-.773438-.21875-1.164063-.300782-.082031-.015624-.167968-.027343-.25-.042968-.367187-.070313-.734375-.125-1.101562-.167969-.109375-.015625-.214844-.027344-.320313-.039063-.4375-.039062-.878906-.0625-1.316406-.066406-.03125 0-.0625-.003906-.09375-.003906h-104.992187c-16.542969 0-30-13.457031-30-30 0-16.539062 13.457031-29.996094 30-29.996094h92.566406c31.363281 0 60.851562-12.214844 83.027344-34.390625 5.859374-5.859375 5.859374-15.355469 0-21.214843-5.855469-5.855469-15.351563-5.855469-21.210938 0-16.511719 16.511718-38.464844 25.605468-61.816406 25.605468h-92.566406c-33.082032 0-59.996094 26.917969-59.996094 60 0 23.460938 13.542968 43.808594 33.21875 53.664063-2.011719 2.550781-3.222656 5.765625-3.222656 9.269531v12.058594c0 24.8125 20.1875 45 44.996093 45 11.515625 0 22.035157-4.347656 30-11.488282 7.964844 7.140626 18.484375 11.488282 30 11.488282 24.808594 0 44.996094-20.1875 44.996094-45v-5.742188c27.902344 13.578125 58.96875 20.742188 89.996094 20.742188 32.355469 0 64.449219-7.484375 92.816406-21.640625l20.621094-9.8125c7.480469-3.558594 10.660156-12.507813 7.097656-19.988281zm-315.527344 51.445312c-8.269531 0-14.996093-6.730469-14.996093-15v-12.0625c0-1.007812-.105469-1.992188-.292969-2.945312.097656 0 .195312.007812.292969.007812h29.996093v15c0 8.269531-6.726562 15-15 15zm60 0c-8.273437 0-15-6.730469-15-15v-15h29.996094v15c0 8.269531-6.726563 15-14.996094 15zm0 0" fill="#ffcebf"/><path d="m437.003906 407.183594c-2.742187 0-5.476562-.75-7.882812-2.238282-4.425782-2.734374-7.117188-7.5625-7.117188-12.761718v-209.988282c0-8.28125 6.71875-15 15-15h59.996094c8.285156 0 15 6.71875 15 15v179.992188c0 5.679688-3.210938 10.875-8.289062 13.414062l-60 30c-2.117188 1.058594-4.414063 1.582032-6.707032 1.582032zm15-209.988282v170.71875l30-14.996093v-155.722657zm44.996094 164.992188h.011719zm0 0" fill="#463b85"/></svg>